<svg data-v-423bf9ae="" xmlns="http://www.w3.org/2000/svg" viewBox="0 0 231 90" class="iconLeft"><!----><!----><!----><g data-v-423bf9ae="" id="154e6022-6e6e-4550-8ec3-b1fe482802d8" fill="#08374E" transform="matrix(7.936508497163071,0,0,7.936508497163071,105.87301280483054,-30.000004738096465)"><path d="M4.21 13.23L4.21 13.23Q2.51 13.23 1.53 12.31L1.53 12.31L1.53 12.31Q0.55 11.40 0.52 9.65L0.52 9.65L0.52 9.21L0.52 9.21Q0.57 7.55 1.55 6.61L1.55 6.61L1.55 6.61Q2.53 5.67 4.20 5.67L4.20 5.67L4.20 5.67Q5.40 5.67 6.24 6.15L6.24 6.15L6.24 6.15Q7.07 6.64 7.48 7.48L7.48 7.48L7.48 7.48Q7.90 8.33 7.90 9.41L7.90 9.41L7.90 9.76L7.90 9.76Q7.90 9.91 7.79 10.02L7.79 10.02L7.79 10.02Q7.69 10.12 7.53 10.12L7.53 10.12L3.09 10.12L3.09 10.21L3.09 10.21Q3.11 10.84 3.39 11.22L3.39 11.22L3.39 11.22Q3.67 11.61 4.19 11.61L4.19 11.61L4.19 11.61Q4.52 11.61 4.73 11.47L4.73 11.47L4.73 11.47Q4.93 11.34 5.11 11.13L5.11 11.13L5.11 11.13Q5.24 10.99 5.31 10.96L5.31 10.96L5.31 10.96Q5.39 10.92 5.56 10.92L5.56 10.92L7.39 10.92L7.39 10.92Q7.52 10.92 7.61 11.00L7.61 11.00L7.61 11.00Q7.70 11.07 7.70 11.19L7.70 11.19L7.70 11.19Q7.70 11.55 7.29 12.04L7.29 12.04L7.29 12.04Q6.87 12.53 6.08 12.88L6.08 12.88L6.08 12.88Q5.29 13.23 4.21 13.23L4.21 13.23ZM3.09 8.69L5.32 8.69L5.32 8.67L5.32 8.67Q5.32 7.99 5.03 7.62L5.03 7.62L5.03 7.62Q4.73 7.25 4.20 7.25L4.20 7.25L4.20 7.25Q3.67 7.25 3.38 7.62L3.38 7.62L3.38 7.62Q3.09 7.99 3.09 8.67L3.09 8.67L3.09 8.69ZM9.24 13.09L9.24 13.09Q9.10 13.09 9.00 12.98L9.00 12.98L9.00 12.98Q8.89 12.88 8.89 12.74L8.89 12.74L8.89 11.58L8.89 11.58Q8.89 11.33 9.10 11.12L9.10 11.12L12.33 7.69L9.35 7.69L9.35 7.69Q9.21 7.69 9.11 7.58L9.11 7.58L9.11 7.58Q9.00 7.48 9.00 7.34L9.00 7.34L9.00 6.16L9.00 6.16Q9.00 6.01 9.11 5.91L9.11 5.91L9.11 5.91Q9.21 5.81 9.35 5.81L9.35 5.81L15.05 5.81L15.05 5.81Q15.20 5.81 15.30 5.91L15.30 5.91L15.30 5.91Q15.40 6.01 15.40 6.16L15.40 6.16L15.40 7.42L15.40 7.42Q15.40 7.64 15.20 7.84L15.20 7.84L12.07 11.21L15.34 11.21L15.34 11.21Q15.50 11.21 15.60 11.31L15.60 11.31L15.60 11.31Q15.69 11.41 15.69 11.56L15.69 11.56L15.69 12.74L15.69 12.74Q15.69 12.88 15.60 12.98L15.60 12.98L15.60 12.98Q15.50 13.09 15.34 13.09L15.34 13.09L9.24 13.09Z"></path></g><defs data-v-423bf9ae=""><linearGradient data-v-423bf9ae="" gradientTransform="rotate(25)" id="0630dabb-a2bf-4285-b92f-5cdaaf00b036" x1="0%" y1="0%" x2="100%" y2="0%"><stop data-v-423bf9ae="" offset="0%" style="stop-color: rgb(13, 124, 233); stop-opacity: 1;"></stop><stop data-v-423bf9ae="" offset="100%" style="stop-color: rgb(21, 207, 241); stop-opacity: 1;"></stop></linearGradient></defs><g data-v-423bf9ae="" id="44737fe6-d8b8-4e58-9d9a-374af9ca004b" transform="matrix(2.8125,0,0,2.8125,0,0)" stroke="none" fill="url(#0630dabb-a2bf-4285-b92f-5cdaaf00b036)"><path d="M9.382 8.675h13.943v13.943L32 31.293V0H.707zM22.618 23.325H8.675V9.382L0 .707V32h31.293z"></path></g><!----></svg>